<?xml version="1.0" standalone="no"?>
<!DOCTYPE svg PUBLIC "-//W3C//DTD SVG 20010904//EN"
 "http://www.w3.org/TR/2001/REC-SVG-20010904/DTD/svg10.dtd">
<svg version="1.0" xmlns="http://www.w3.org/2000/svg"
 width="368.000000pt" height="398.000000pt" viewBox="0 0 368.000000 398.000000"
 preserveAspectRatio="xMidYMid meet">

<g transform="translate(0.000000,398.000000) scale(0.100000,-0.100000)"
fill="#000000" stroke="none">
<path d="M1453 3740 c-12 -5 -29 -23 -39 -41 -14 -28 -15 -40 -4 -88 12 -53
39 -170 95 -416 59 -253 74 -294 136 -350 145 -130 357 -104 466 59 38 56 40
61 88 316 20 107 47 250 61 316 27 138 22 174 -27 199 -41 22 -65 19 -98 -12
-32 -30 -35 -43 -90 -338 -75 -399 -73 -393 -136 -426 -38 -20 -47 -22 -82
-11 -22 6 -50 23 -62 36 -26 27 -28 37 -121 444 -33 144 -66 271 -72 282 -12
19 -58 41 -82 39 -6 0 -21 -4 -33 -9z"/>
<path d="M856 3484 c-43 -44 -36 -84 32 -184 342 -500 332 -484 332 -537 0
-35 -6 -50 -32 -78 -44 -48 -92 -56 -150 -25 -42 22 -347 210 -478 295 -90 58
-105 65 -137 65 -42 0 -83 -46 -83 -91 0 -45 12 -60 86 -106 34 -21 153 -96
265 -167 292 -185 305 -191 409 -191 69 0 93 5 128 23 66 35 119 88 147 147
34 73 35 188 2 256 -42 89 -390 590 -418 605 -41 21 -73 17 -103 -12z"/>
<path d="M2713 3495 c-27 -19 -380 -584 -405 -648 -69 -180 65 -385 264 -403
96 -9 134 9 428 205 151 101 290 197 308 214 44 43 45 94 1 131 -41 35 -74 33
-134 -7 -28 -18 -135 -91 -240 -162 -104 -70 -212 -143 -239 -161 -66 -45 -95
-50 -149 -26 -44 19 -77 66 -77 109 0 27 41 105 111 213 34 52 70 109 80 127
10 17 33 56 52 85 120 186 137 218 137 252 0 65 -84 108 -137 71z"/>
<path d="M124 2415 c-20 -20 -25 -33 -22 -67 4 -54 33 -75 129 -93 41 -8 94
-19 119 -24 25 -6 144 -29 264 -52 258 -50 275 -59 284 -147 4 -45 1 -56 -21
-85 -29 -39 -51 -49 -157 -72 -41 -9 -142 -31 -225 -51 -82 -19 -190 -43 -239
-55 -127 -28 -155 -47 -156 -102 0 -67 49 -106 118 -91 40 8 141 31 307 69 36
8 94 22 130 30 175 40 203 48 239 61 123 47 209 187 192 312 -9 59 -56 159
-93 194 -58 54 -98 69 -298 108 -123 24 -265 51 -320 61 -33 6 -79 15 -102 20
-75 16 -121 12 -149 -16z"/>
<path d="M3365 2420 c-38 -10 -113 -27 -165 -39 -443 -101 -444 -102 -508
-164 -70 -68 -92 -121 -92 -222 0 -71 4 -94 24 -133 27 -54 96 -122 147 -145
29 -14 138 -40 219 -54 14 -2 48 -8 75 -13 28 -6 97 -19 155 -30 58 -11 126
-25 151 -30 25 -6 71 -12 102 -13 67 -2 94 18 104 76 5 31 1 40 -24 66 -17 16
-41 32 -54 35 -13 2 -55 9 -94 16 -38 7 -86 16 -105 20 -19 5 -62 14 -95 19
-334 59 -377 71 -404 115 -26 42 -27 101 -2 142 24 39 57 52 271 99 254 56
422 96 453 107 60 23 77 99 32 143 -30 31 -86 32 -190 5z"/>
<path d="M964 1551 c-23 -11 -120 -72 -215 -137 -96 -65 -217 -146 -269 -181
-116 -79 -140 -104 -140 -147 0 -51 33 -86 81 -86 35 0 74 23 330 195 268 181
293 195 334 195 37 0 50 -5 80 -35 31 -31 35 -42 35 -86 0 -29 -7 -61 -17 -77
-34 -57 -62 -100 -120 -192 -236 -370 -250 -399 -223 -451 15 -27 67 -51 93
-43 32 9 65 42 95 94 14 25 54 88 87 140 119 184 227 361 248 408 33 73 30
180 -8 255 -33 67 -94 121 -166 148 -65 25 -170 25 -225 0z"/>
<path d="M2521 1550 c-98 -15 -208 -112 -233 -206 -37 -141 -26 -171 151 -434
225 -335 238 -354 263 -376 32 -29 66 -36 99 -18 64 33 65 87 3 180 -42 62
-195 286 -297 436 -21 31 -42 71 -46 90 -18 79 38 148 120 148 38 0 64 -13
199 -96 85 -53 171 -106 190 -119 195 -127 247 -155 290 -155 31 0 43 6 59 29
12 16 21 45 21 65 0 43 -7 49 -254 202 -94 59 -205 128 -246 155 -149 96 -211
115 -319 99z"/>
<path d="M1729 1237 c-115 -43 -181 -122 -207 -247 -6 -30 -27 -140 -47 -245
-19 -104 -40 -208 -45 -230 -16 -71 -30 -145 -30 -166 0 -35 53 -79 95 -79 65
0 77 24 119 242 83 424 96 483 114 508 28 37 62 51 109 47 61 -6 98 -37 112
-94 7 -26 16 -64 21 -83 5 -19 18 -78 30 -130 11 -52 25 -111 30 -130 5 -19
23 -96 40 -172 23 -102 37 -143 55 -162 42 -45 123 -28 146 30 8 24 2 59 -66
354 -7 30 -27 116 -44 190 -41 179 -46 196 -77 244 -33 50 -67 81 -119 108
-50 27 -182 35 -236 15z"/>
</g>
</svg>
